<svg width="360" height="200" viewBox="0 0 360 200" fill="none" xmlns="http://www.w3.org/2000/svg">
<g clip-path="url(#clip0_3570_1794)">
<rect width="360" height="200" fill="#0F325A"/>
<path d="M360 196.721V203.624C360 203.624 276.482 215.719 260.352 203.624C244.223 191.529 315.975 183.306 325.653 174.264C339.157 161.647 360 171.992 360 171.992V196.721Z" fill="#4FB286"/>
<path d="M-32.5 81.5C-18.1558 81.5 -5.28162 85.4166 3.93457 91.6182C13.1662 97.8301 18.5 106.144 18.5 115C18.5 123.856 13.1662 132.17 3.93457 138.382C-5.28162 144.583 -18.1558 148.5 -32.5 148.5C-46.8442 148.5 -59.7184 144.583 -68.9346 138.382C-78.1662 132.17 -83.5 123.856 -83.5 115C-83.5 106.144 -78.1662 97.8301 -68.9346 91.6182C-59.7184 85.4166 -46.8442 81.5 -32.5 81.5Z" stroke="#FF6600" stroke-opacity="0.57" stroke-width="5"/>
<ellipse cx="215" cy="115.5" rx="4" ry="4.5" fill="#4FB286" fill-opacity="0.5"/>
<ellipse cx="285" cy="39.5" rx="4" ry="4.5" fill="#4FB286" fill-opacity="0.3"/>
<ellipse cx="106" cy="87.5" rx="4" ry="4.5" fill="#E43694" fill-opacity="0.3"/>
</g>
<defs>
<clipPath id="clip0_3570_1794">
<rect width="360" height="200" fill="white"/>
</clipPath>
</defs>
</svg>
